<?xml version="1.0" encoding="UTF-8"?> <svg xmlns="http://www.w3.org/2000/svg" width="400" height="400" viewBox="0 0 400 400" fill="none"> <rect width="400" height="400" rx="100" fill="#ECECEC"></rect> <path d="M308.396 115.91C273.544 101.897 234.722 101.365 199.5 114.419C164.278 101.365 125.456 101.897 90.6045 115.91C88.6544 116.689 86.9828 118.035 85.8055 119.773C84.6281 121.512 83.9992 123.564 84 125.664V283.553C83.9994 285.269 84.4193 286.958 85.2229 288.474C86.0266 289.99 87.1895 291.286 88.61 292.249C90.0304 293.211 91.6651 293.811 93.3711 293.996C95.077 294.18 96.8021 293.944 98.3955 293.307C129.583 280.757 164.417 280.757 195.604 293.307C196.773 293.75 198.009 293.984 199.259 294C199.343 294 199.416 294 199.5 294C199.584 294 199.657 294 199.741 294C200.991 293.984 202.227 293.75 203.396 293.307C234.583 280.757 269.417 280.757 300.604 293.307C302.197 293.945 303.922 294.183 305.628 294C307.334 293.817 308.969 293.218 310.391 292.257C311.812 291.294 312.976 289.997 313.779 288.479C314.583 286.961 315.002 285.27 315 283.553V125.664C315.001 123.564 314.372 121.512 313.195 119.773C312.017 118.035 310.346 116.689 308.396 115.91ZM189 268.947C161.581 260.915 132.437 260.883 105 268.853V132.972C132.244 123.724 161.786 123.772 189 133.109V268.947ZM294 268.853C266.564 260.904 237.436 260.904 210 268.853V133.109C237.214 123.772 266.756 123.724 294 132.972V268.853Z" fill="#AFAFAF"></path> </svg> 